<mxfile host="app.diagrams.net" modified="2024-09-12T15:06:34.572Z" agent="Mozilla/5.0 (Windows NT 10.0; Win64; x64) AppleWebKit/537.36 (KHTML, like Gecko) Chrome/128.0.0.0 Safari/537.36" etag="GdMWDIJ85v2201X5wyNN" version="24.3.1" type="device">
  <diagram name="Page-1" id="_NTe5zvvzwBzdoj0oX6c">
    <mxGraphModel dx="1434" dy="738" grid="0" gridSize="10" guides="1" tooltips="1" connect="1" arrows="1" fold="1" page="1" pageScale="1" pageWidth="827" pageHeight="1169" math="0" shadow="0">
      <root>
        <mxCell id="0" />
        <mxCell id="1" parent="0" />
        <mxCell id="SvKQhbEGWFyG_5VxSVS0-15" style="edgeStyle=orthogonalEdgeStyle;rounded=0;orthogonalLoop=1;jettySize=auto;html=1;" edge="1" parent="1" source="SvKQhbEGWFyG_5VxSVS0-2" target="SvKQhbEGWFyG_5VxSVS0-8">
          <mxGeometry relative="1" as="geometry">
            <Array as="points">
              <mxPoint x="320" y="331" />
              <mxPoint x="320" y="212" />
            </Array>
          </mxGeometry>
        </mxCell>
        <mxCell id="SvKQhbEGWFyG_5VxSVS0-23" value="3" style="edgeLabel;html=1;align=center;verticalAlign=middle;resizable=0;points=[];fontSize=16;" vertex="1" connectable="0" parent="SvKQhbEGWFyG_5VxSVS0-15">
          <mxGeometry x="0.0904" y="1" relative="1" as="geometry">
            <mxPoint x="1" as="offset" />
          </mxGeometry>
        </mxCell>
        <mxCell id="SvKQhbEGWFyG_5VxSVS0-16" style="edgeStyle=orthogonalEdgeStyle;rounded=0;orthogonalLoop=1;jettySize=auto;html=1;" edge="1" parent="1" source="SvKQhbEGWFyG_5VxSVS0-2" target="SvKQhbEGWFyG_5VxSVS0-7">
          <mxGeometry relative="1" as="geometry">
            <Array as="points">
              <mxPoint x="320" y="331" />
              <mxPoint x="320" y="431" />
            </Array>
          </mxGeometry>
        </mxCell>
        <mxCell id="SvKQhbEGWFyG_5VxSVS0-26" value="5" style="edgeLabel;html=1;align=center;verticalAlign=middle;resizable=0;points=[];fontSize=16;" vertex="1" connectable="0" parent="SvKQhbEGWFyG_5VxSVS0-16">
          <mxGeometry x="-0.0744" y="-1" relative="1" as="geometry">
            <mxPoint x="1" as="offset" />
          </mxGeometry>
        </mxCell>
        <mxCell id="SvKQhbEGWFyG_5VxSVS0-2" value="EmailJS" style="shape=image;verticalLabelPosition=bottom;labelBackgroundColor=default;verticalAlign=top;aspect=fixed;imageAspect=0;image=https://www.emailjs.com/logo.png;fontSize=16;labelBorderColor=none;" vertex="1" parent="1">
          <mxGeometry x="170" y="281" width="100" height="100" as="geometry" />
        </mxCell>
        <mxCell id="SvKQhbEGWFyG_5VxSVS0-20" style="edgeStyle=orthogonalEdgeStyle;rounded=0;orthogonalLoop=1;jettySize=auto;html=1;exitX=0.5;exitY=1;exitDx=0;exitDy=0;entryX=1;entryY=0.5;entryDx=0;entryDy=0;" edge="1" parent="1" source="SvKQhbEGWFyG_5VxSVS0-3" target="SvKQhbEGWFyG_5VxSVS0-7">
          <mxGeometry relative="1" as="geometry" />
        </mxCell>
        <mxCell id="SvKQhbEGWFyG_5VxSVS0-28" value="7" style="edgeLabel;html=1;align=center;verticalAlign=middle;resizable=0;points=[];fontSize=16;" vertex="1" connectable="0" parent="SvKQhbEGWFyG_5VxSVS0-20">
          <mxGeometry x="0.1024" relative="1" as="geometry">
            <mxPoint x="-16" y="-1" as="offset" />
          </mxGeometry>
        </mxCell>
        <mxCell id="SvKQhbEGWFyG_5VxSVS0-3" value="Gmail" style="shape=image;verticalLabelPosition=bottom;labelBackgroundColor=default;verticalAlign=top;aspect=fixed;imageAspect=0;image=https://upload.wikimedia.org/wikipedia/commons/thumb/7/7e/Gmail_icon_%282020%29.svg/640px-Gmail_icon_%282020%29.svg.png;fontSize=16;" vertex="1" parent="1">
          <mxGeometry x="590" y="293.5" width="100" height="75" as="geometry" />
        </mxCell>
        <mxCell id="SvKQhbEGWFyG_5VxSVS0-18" style="edgeStyle=orthogonalEdgeStyle;rounded=0;orthogonalLoop=1;jettySize=auto;html=1;exitX=0.5;exitY=1;exitDx=0;exitDy=0;entryX=1;entryY=0.5;entryDx=0;entryDy=0;" edge="1" parent="1" source="SvKQhbEGWFyG_5VxSVS0-7" target="SvKQhbEGWFyG_5VxSVS0-12">
          <mxGeometry relative="1" as="geometry" />
        </mxCell>
        <mxCell id="SvKQhbEGWFyG_5VxSVS0-27" value="6" style="edgeLabel;html=1;align=center;verticalAlign=middle;resizable=0;points=[];fontSize=16;" vertex="1" connectable="0" parent="SvKQhbEGWFyG_5VxSVS0-18">
          <mxGeometry x="-0.654" y="1" relative="1" as="geometry">
            <mxPoint x="-1" y="-5" as="offset" />
          </mxGeometry>
        </mxCell>
        <mxCell id="SvKQhbEGWFyG_5VxSVS0-29" value="8" style="edgeLabel;html=1;align=center;verticalAlign=middle;resizable=0;points=[];fontSize=16;" vertex="1" connectable="0" parent="SvKQhbEGWFyG_5VxSVS0-18">
          <mxGeometry x="-0.4868" y="-1" relative="1" as="geometry">
            <mxPoint x="1" y="18" as="offset" />
          </mxGeometry>
        </mxCell>
        <mxCell id="SvKQhbEGWFyG_5VxSVS0-7" value="Mailgun" style="shape=image;verticalLabelPosition=bottom;labelBackgroundColor=default;verticalAlign=top;aspect=fixed;imageAspect=0;image=https://www.marcus-povey.co.uk/wp-content/Mailgun_Icon.png;fontSize=16;" vertex="1" parent="1">
          <mxGeometry x="380" y="381" width="100" height="100" as="geometry" />
        </mxCell>
        <mxCell id="SvKQhbEGWFyG_5VxSVS0-19" style="edgeStyle=orthogonalEdgeStyle;rounded=0;orthogonalLoop=1;jettySize=auto;html=1;entryX=0.5;entryY=0;entryDx=0;entryDy=0;" edge="1" parent="1" source="SvKQhbEGWFyG_5VxSVS0-8" target="SvKQhbEGWFyG_5VxSVS0-3">
          <mxGeometry relative="1" as="geometry" />
        </mxCell>
        <mxCell id="SvKQhbEGWFyG_5VxSVS0-24" value="4" style="edgeLabel;html=1;align=center;verticalAlign=middle;resizable=0;points=[];fontSize=16;" vertex="1" connectable="0" parent="SvKQhbEGWFyG_5VxSVS0-19">
          <mxGeometry x="-0.3027" y="-1" relative="1" as="geometry">
            <mxPoint x="-13" y="-1" as="offset" />
          </mxGeometry>
        </mxCell>
        <mxCell id="SvKQhbEGWFyG_5VxSVS0-8" value="Cloudflare" style="shape=image;verticalLabelPosition=bottom;labelBackgroundColor=default;verticalAlign=top;aspect=fixed;imageAspect=0;image=https://boostmypresta.com/109-large_default/cloudflare-installation-configuration.jpg;fontSize=16;" vertex="1" parent="1">
          <mxGeometry x="360" y="142.82999999999993" width="140" height="138.17" as="geometry" />
        </mxCell>
        <mxCell id="SvKQhbEGWFyG_5VxSVS0-14" style="edgeStyle=orthogonalEdgeStyle;rounded=0;orthogonalLoop=1;jettySize=auto;html=1;" edge="1" parent="1" source="SvKQhbEGWFyG_5VxSVS0-9" target="SvKQhbEGWFyG_5VxSVS0-2">
          <mxGeometry relative="1" as="geometry" />
        </mxCell>
        <mxCell id="SvKQhbEGWFyG_5VxSVS0-22" value="2" style="edgeLabel;html=1;align=center;verticalAlign=middle;resizable=0;points=[];fontSize=16;" vertex="1" connectable="0" parent="SvKQhbEGWFyG_5VxSVS0-14">
          <mxGeometry x="-0.1881" y="1" relative="1" as="geometry">
            <mxPoint x="1" as="offset" />
          </mxGeometry>
        </mxCell>
        <mxCell id="SvKQhbEGWFyG_5VxSVS0-9" value="semplaatsman.nl" style="shape=image;verticalLabelPosition=bottom;labelBackgroundColor=default;verticalAlign=top;aspect=fixed;imageAspect=0;image=data:image/png,iVBORw0KGgoAAAANSUhEUgAAAWgAAAFoCAYAAAB65WHVAAAAAXNSR0IArs4c6QAAIABJREFUeAHtnQeYFGXy/2fRu9/deXeGE9HdmX6r3h5YWGAJCwhIVoliQEEUiQJGkgrGU/SMiCIqKhJExQNBQMBTEcmCBBUUkCQ555xD/aneXf7Lsql7wvb01DzPPrs70z3zvp9+69vv1Ftvlc8nDyEQRgKBQCBRKdVMKeyrFE5UChcphVuU0icBNMXBzxmlcBcALgPQU5XC1xHxZqXUNT6fLyGMqOWthIAQEAK5EkgwDONypYIVELE5IvYHwN+UwkMsxkrh6TgQ44LccJjDCQB9TCn4yTCgH/MKBAJltNaXimjnOr7kBSEgBBwQ+JNhGKUBoBuAHgOglwLo4yLGtr4dHOObGQB+zhwTE6FknTp1LnZwLeQUISAE4pzARUlJSX7DMK4HgJcB8HcAfSSOXBYFmSU7PkYpPAWARwDwV8OAJ5VSFS677LLLZGYd51Yn3RcC+RC4GACuVQqfAsDpSuFemSXbmiU7Em2l9Cal8AulsKff7w/mc43kZSEgBOKIwMVJSUG/YWBrpfQUFgv2nYowR16Yc2B8HADXKAWfIWKtq666qpjP5ysSR2NRuioEhAATKFq06N8NQ9dQCl9C1L+luzCsRb4zOQiHo5mhvI8TkUeOCGEXyB7DgG8NA+5jd5MItditEPA4AV6UuvxyfalhGCzMwwH0BvErOxHRqJ1zBoDdTDgTAJ5DRJWWlvYnjw9T6Z4QiDsCCcFgsCi7MRD1JETzoFIoM+WYidHOnFXrP85GzzxpGMEUn88nESBxZ8bSYS8S+BMi3gOA33C8srgdojb7jZRbiG+siwwDnr366quLenHASp+EgOcJAMBlhoFNAXAGgD4KoGNqxoyoqXjxEpSSUoYqVqxElSpVoeuuq0m1a9elevVuoPr1G1KjRk2oSZOb6NZbb6Nbb212wc8tt9xKjRvfZB3XqFFjuv76G6lOnXrW+1StWp0qVEijMmVSKRgsESkxjeT7nlAK1wBAV7/fn+T5AS0dFAJeIMB+ZtM0qyuFgwD0PrfPmE2zOKWmlqMbb2xA99zTmrp1607/+c+L9Pbb79Cnnw6n0aO/oO++m0zTpk2nBQsW0OLFi2nFihW0du1a2rx5M23bto327dtHBw4cuOBn7969tGXLFuu4TZs2WectXbqUfv75Z/rxxx9p0qTv6Msvx9Onn35K77zzLj33XG/r89u2bU8NGjSktLTKhGhGUmRDfu/0b0X4LQDckpiY+DcvjGHpgxDwHAEA+EtioqoAoIekx9W6Iw8GCxzPgqtXr0ENGza2RPiZZ/5NH374IY0fP54WLlxE69ats4R0165ddODAQTp27BidPn2aovngz+PPPXToEO3Zs8cS/g0bNtCSJUto8uTvafDgwfTUU09Tq1atiWfjPJsvXbqsmwR8PwCMAoCqItSeM2/pUCwTuPTSSy8HMLvyFuz0EK3C9bPyrLhGjVrUrl0HYjEeMmQozZw5k3gWe/LkyWjqbtg/68yZM9bNZO7cefTZZ59Zs/2OHTtZrpPixZNDnhGH+I2H3Vjs9nhWRDqWLVra7gkCbIRK6dsBcH5hhcux/zY1tTzVrl2H7r//fvroo49o5cqVtG3bdms2yoLMoubVB8+8Dx8+TDt37qQlS5bS8OHDqUOHDpavvHz5imSawaiLNt+klcJZSqm6fr//r54Y7NIJIRBLBJKSkkpwWksAvSfaWeTYbcH+WZ459uv3Fn377STauHEjHT16lE6cOOFpQc7rRsM3Ir4hHTlyxOLx3Xff0RtvvEmtWt1DaWmVoirU6WMCtxuGflIWEWPJsqWtMU2AZ0SGYdyglF4QzYxy/PW9YsU0uuOO5jRw4If0yy+/0M6du2LeZZGX4IbjNRbsrVu3WguT/fu/Tc2a3U5ly5YjraM2sz6qFE7WWteQ7HkxbfrSeLcTuPpq3mwCzyLqHdHaaMILYRxd8eab/Wjx4iXWDPnUqVPh0K64ew/mxrPrefPm0XPPPUc33dSUSpUqHfGZNY8VpXAVInbiLf5uH+fSPiEQcwQCgYDJuYTPZjw7HOJCUoEEoXTpMvT008/Q999Psfyr0Y6q8Lp688x6/fr1NH78BGrduo0V8x3p66oU7lZKvXPllVf+I+YMQBosBNxIIBgM/p9hGE2V0qsi6WvmjSG82Nes2R30zjvvWGFmx48fj1t/crRuEHzjO3jwoOUC4RtitWrVI+3+4A0unwaDwdJuHO/SJiEQMwT46ygiPgygt0VydsWRGG3btqMxY8bQli1bRZSjpc7ZPofFmjfQvPLKq1aYYgSv+SkA/RMilosZY5CGCgEXEUhISkr6FyIOAND7I2GomTNmFuZvvvnW2pwhboxsillI/7L7Y9WqVVYECG9tj9SColK4IBDA+ikpKX920diXpggBdxPg+n+IenikXBq8MNWpU2caN+5La9GqkHRIPjYfAhy2x9van3zyaSsXSSRu1ADIKWdb+Xy+/3O3VUjrhEDhE0hQSqFhWAmOwl6UlcO72rRpRxMmTLB8zF7eQJKP9sXUy/v27acZM2bQQw89TFWqVC3QIq8NMeec0xs46ZIsHha+AEgL3EsgAQDKA+ip4d6uzVuvOQPcJ598QpzvQsLkYkqfrcbyzZSTQn3++efUpElT4mtqQ4QLcCzuBoDuPp9P3B3u1QhpWSERSEDEKkrhonDGN/OOP95u/PLLr1h5MGJPlqTF2QmwUK9bt57ef/+DsGfbU0rvNAzoJbHShaQC8rGuJHARZyBTSv8cTnEuUSLZ2oo9deo0OnLkaHY7l/9jnABvq5816wcrIVWJEiULMEMuUAIt3tDCsdKPSMUWV2qFNCraBDh3M1fICKc4cyL6fv36We6MGNchaX4+BDjfNc+mS5VKCZdIk1K4CwBaRtsW5POEgJsIFFFKVQPA5eGqdsIzKU7MM3fuXPEz5yNsXnmZXR6cx/rrr7+hm2++NVwizWlL1yulGkv+DjdJhrQlagSUUhWU0rPDJc4lS6ZYuZc5q5xEZ3hFfu3147ffFtPdd7cKYwkv/BUAro2aUcgHCQE3EChWrNhVACYn1z8d6ko8LwRWrlyFxowZa20ZtmfScrSXCPCNmV0ejz76GIXLL60UfsV5YHw+X4IbbEfaIAQiSoB3CCqFo0MV5szz77yzJXF1D5k1e0lqQ+sLZ8x7663+VgRP5jgJ4fcxRBzOVXsiahjy5kKgsAkUK1bsEsOAfhlVtkPyF3L+jPbtO9CaNWuiXr8vNPmQs6NBYP/+/fTRR8PCtbHlgGFgFx6/hW1D8vlCIFIELtZatwLQR0KYzViizrkZevV6nNauXScz52ioXYx+Bmcj5GK31atfF9JkIGO8blBKNfH5fEUiZSDyvkKg0AhorZsopTeGuijICfRfeullq95fjOqGNDuKBLgEGSfD4irkIU4MzgDAPMMwUgrNiOSDhUAkCPj9/qBSMDvUWOcyZcrS+++/by0Gis85iioX4x/FM+lvvvmGqlatHpJIpxcmxpHJycmS8D8SQiHvGX0CvG0WAAeGml+Dw+gGDBggM+cYF8vCaj6L9IgRI8KxcLgfEe8VV0f0tUQ+McwEAOAvZ5Pt3w+g94by9bJcuQpWodbDhw8Xln3L53qAACfJ4hSz7CYLYTzydvDlSUlQNczmIm8nBKJLwO/XZQFwWQjGYBlSnz6vW7vFPKAR0oVCJsDFAF544YWQ46SVUl9E15rk04RAGAlwLUEA+DiUzSgcrfHww12saieFbNfy8R4hwGsXW7dupW7duhNvcnI+ecBjhoF3yAaWMIqGvFXUCFysFN4LoEOqwN258/20adNmj0iDdMNNBHbu3Ek333xLCALN2fFwHiImR82q5IOEQDgIBINBEwDnOJ2d8MymevUatGbNWjfZtLTFQwR4Jj116lSqVat2KCJ9FAAe52+L4bAbeQ8hEBUCANg/FNcGlzX63/++lk0oHhJEN3aFIzuGDh1KKSllLhBprthSkGK1SuGKQCBQJiqGJR8iBEIlwKXsQ9ktyFu433vvfVkUdKOiebBNvCX84Ye7FkiMc/lGeBoA+vl8Uhk8VO2Q8yNMwO/3/xVAD81lIF8wS8l+HM9a7r//AZJwOg8qoUu7xK6OP/5YTQ0bNs53fGYfr///f1yrlKoXYfOStxcCoRFALF5LKdz6/wdugcoMnTOM+vUb0KJFi8S14VIx82qzTp8+TSNHfp6jq6OAY5nT5g4RX3Ro+iFnR5BASkoK7xgc5jTXRmpqORo9erRkpvOqCrq8X+yP7tHjkXOThQIK87njuUwWx/1L2F0ERUbe2jkBpRTXFnS8Y5DjUg8ePOhyM5bmeZnA778vo2rVnObrwFOI+LbP57vIuRXJmUIgMgQ47nmw08iNG264kZYuXepl25e+xQABznz3xhtvOt5liKh/M00zGBkTk3cVAg4JAEAdAHO13a+FfDznRRg48EPiLbjyEAKFTWDduvXEayFOxjKAPqYUPubz+S52aEpymhAILwGueqwUvpSeitHeoiAbQbNmt1tbbwvbMN38+RxpwD88wzt69KgV5XLo0CE6cOAAcZjYjh07ad26dbR27dpzP/z/rl27rWP4OI6M4XO5AjbfDHlhTB4XEmAu/fu/HcI2cPwWAK4Or5XJuwkBhwT8fn8SgF7qZMZRvHiybEi5UCOsZ7iuHpfzmj9/Pn311dc0bNjH9Oyzva0wxBYt7qTrr7+RatasRamp5als2XJUpkzqeT/8HP9wJkDeldmkyU3UunUb6tq1G736ah8aMmQoff31N7RgwQLauHGTJd65NCXunuZt4MzLyZhO3wMQvMWhOclpQiCsBBIQsYWTXM+8nbt167aSCInImh3z7JaFYfr06fT22+9Q9+6PULNmd1iVQPhG5lAs8jwvObkU1ahRi+6+uxU98cSTVg2/X375xZqRHz9+Im7DHTktKd/AgsHiefLL7ZoopT+TaI6w6oy8mTMCKX8GwFFOQut45jdx4ldxNzvL2mF2W2zfvp3mzZtPr7zyqjUr5pkw76bMzfgj9Txva2bBLl++IjVp0pTefXcALVjwE+3evTtrk+Pmb84D43zzCq5LTEwMOLMpOUsIhImAYRhpiHqlE9Ho0OFey38aNxafpaOZu9dee60PNW/egrhajBOGkT6HbxYtWrSkYcM+sXzZWbrg+T/ZF80VfPim5YDzYQCza5jMTN5GCDgicJFhmF0B9FEHA5hGjhzpeSPP3kFenFuxYgW98sprxAmhCmOm7ORalShRkho0aEQjRoy0Zvx8g4mHBy+6sv/eATOuujIxMTHxSkeWJScJgVAJGIZxOYA50sHgtYp38iJYPD24v+zXrFfvhhAiBOxHyTi5Prmdw0J9++130IQJE4h33nn9wb5o9s3nxiOf59cqFawYqp3J+ULAEQGlVClEvSGfQXrB4ObFwWeffc7rtn2ufzzbXL58OT344ENWlIVdXm48nl0fvXo9Tps2bfJ0uB5fuy+//JJSUkpfMI7zuy68cG4Y2MaRcclJQiBUAoaBzfMbpDm9Xr58BZo7d945AfPyHxy3PHny93TDDfVtG3hO7Nz2HM+mf/xxrqdFmkMd2Q/vhL1SelyodibnCwFHBABwoJNBy2WGtm/f4WVdtvrG/ubx4yfQtddWi1mXRn7Xl9PDssuGb0Je3fjCG3teeuklp9dwW2Ji4t8cGZicJAScEgCAvyiFv+dnwNlf50Uxrqjs9UUm9l2OHfslpaVVdmrYjmZs2XlH4392WfFmGF5A9Oq6wpQpUxy5p5TCM4FAoKZTO5PzhIAjAoFAoBKA3m5XADj2mevAefnB4vztt5OsmaVdPrF8fKVKVeiLL74g7r/XHhwLfu21VR3dNJXCno6MTE4SAk4JKIUPOSlrdeON9T07y8oUpeXLV1ihWTyzjGXBddL2atWuo6lTp3nuGxKvJXTv3sPRtyFE/RVXGnJqa3KeELBLoAiAfgtAcxUJWyLEOZ+9nLWO/ZVdunS1xcQuQ7cfX7fu9bRkyVJPiTT718eMGUumGXRybef7/X5JQWpXZeR4ZwRM07wKAL+xKxQ8o+Q4YK/6n/mr/eDBOVeItssqt+MRzWOIer9SeieA3gTAtfCQ07z+ppSenfUHAOcopZdmvL4eQG8BwF2I5kFE83hunxHq83ydO3W6j7Zt25b5pcITvzlfecWKlWwLtFK4BRHrO7M2OUsI2CRgGMEUAHOJXUPm8LqZM2d6wlhz6sT69eut3XZ2ueR1PKdwVYqFWE8AwP6GgV0AzFsBoCqkPy7LL/cw18lDxGKJiZhsGLoGYrAFotlFKXwbQE/JEHvbwpNXu3kxuG/fN+jkSe/4o/mG07Ll3U44nUA0O0nyJJtCI4c7I6CUqgagd+RloDm9dvPNt1obNnISNy889/777xMnHMqp7zafY9fRVqX014jB5gDFy1911VXFOHImjEaeUK1atb8mJSX5AwFdSSn9IIs1lyxzmtc7ex85FeqcOXM8842Jsw0+/rjjXYWvSkFZZ3ojZ9kkYBjBFtmNsSD/d+3anfbt2+8FLb6gDzy7qlrVaS27c378MwD4G6L5Iu/S9Pl8RWxempAO5xsAYolySpk8s17jJENh9nHQtm074sICXnkMHjyEnKV+Ncdffrm+NKQLJCcLgYIQQMR/ZzfE/P5nv+SLL77kyc0M7FMfNWq04zp26UKIh5TSgw3DKN27d++oCnP2a85CDRCsA6BHcAmnUIS6VKnSNH36DK/osxU+yelY8xvvOby+lNdusrOW/4VA2AkA6KE5DMA8By0n2Rk+/DPPGGrWjvAM8YEHHnIUgpXOEdcCmG2vvPLKf4TRhRHqdU8oUaLElQC6B4BeZ/d6Zz2+ffsOngmt5EyEXOAga/8K8rdSuM80TckPHeqolPPzJ4CoZxVkUGY9pnTpMp7doMKJkBo1amzbaDP4HDUMbJ2Wlvan/MlH/4j0BUazE0d+ZL2edv7mGee0adOy3tNi9m8Oo+S0q3b6n3HsMc6dHv0rKJ8YdwQA0PaMincQLl68OGYNM6+Gf//9FKv2nwOjPYVo9nV7roaMKJA2iCaH9tkWJ144feaZf3tmFn3vvR1tMwDQJySzXdxJZeF0GEDbjqHl+NEtW7bkpXMx+RrHPn/00UdODJYAcLnf7y9bOFfR3qfyTjgA3c/JtWdRr1OnHvEOSy88XnzxRdvXG9E8KVu+7Y05OdoBAa4Q4WQWxRndOEzJaw9OWs9lqxwwOQ2Aw4oVK3aJg8tQKKcEAoFERD3DyaIhLxJ/8smnnrj8H300zMn1PqUUvlEoF04+NH4IICYn2xUjNs5mzW73ZAUOzt7G29ftMlGKozbw3hgbOUUCAbw5fUeifVfHfffd7wmBnjBhou3rzWkRlNJjYux6S3NjjQAiptoVIxboe+5pTZxwxmsPjuDgbc12mQDo3Yh4Y6xdf4DylwHg507ysHC2u02bNtOOHTti+mfSpElOrjefMzPWrre0N8YIKGXWsytGLND33/+gJ5MksUA7WTRC1Dt5R2aMXX6ruQBwK4A+bHccxPvxiHqxz+dzZbROLI5DaXMOBJTSje0aGgs0p2r0Yha7eBRov9+fBKDX2h0Hcrz5u9aymzAHWZGnwkUAAO60a2gcZtW79wsi0OeHqO1WyqwbrusSzffhiA5EHGZ3HMjxeoXsJozmSI3DzwKAlnYNjQX6+ee9KdCHDx+mhx+2n/9ZKTyCiJzhLBYfFxkGdrI7DuL9eKX0Kk5OFYsXXNocIwREoM9f5kwvKPqyk0WjM0rhJ7Ga4SwQwFoAel+8i669/uOaQCBgxoipSzNjkYAI9PkCzZU2OL7XnqGmh6hxInf26Uc7a104xp3WuiyAXuak33F8znrDMFLCwV/eQwjkSEAE+nyB5v+mTZtOqanlHIo0VzyxUosm5AjcpU+mLxSa0+NYbJ1cbxFol45nzzTLqUA/++yznlwkZIFes2YtNW16sxOD5XPOAHCpKlXdRZns8h2vvKNUKZwoAm1rw44IdL4jSw4IiQAANLBrlF4Os2OB5i3sPXv2CiHdKIs0ruGdhUWLFv17SBcoSidzgiel9Kd2x0KcHy8CHaXxGbcf43SjCudL9mIcNAs0J+zndJqc8zpEATrAC4cZs+k/u3yQcWX3D0Lsb6i8Yu18EWiXD+qYb14gEKhk1yjTt3q38eRWbxZofuzfv5+aNr0lLIKhFC5WCt5MTFQV3BzlAaBfA9Cn7I6HOD5eBDrmFdDlHUAspewaGAt0/foNPZksKUOfrV9ffvklJSeXCpdIs/BtVwrfVUo34aKxbov2QDS59NkJu+Mhjo8XgXa5vsV88wDgMicGxgVVeVu0lx+7du2ijh07heKLzkXc8QAAfgcATxiGod0yiBCxo+TkkEVCt4xHaUc6gSJOyh+lJ+zf6mV9tgriLljwE9WpUzcXobVlzBe8B+8+5Go2iDgREdvwpge+YRbWzFprfROi/gFAL5Sf/BkopSf7/f6gCIkQiCgBAL3G7iyaS14tWrTI0wKd2TneuBIuV0dunJVCTgC/2jBgpGFAd8Mwrpc8DxEd9vLmQiA2CADoKbkJR27Pp6SUpkmTvsvUME//5rC73r2fD0dUxwWz6Fz4HgfAbQC4EABHAuj2nLfb7/df4fP5/ubz+S6OjZElrRQCQiBkAojmoFyEIldBKV48mbhUULw8Dh48SH36vE7JySGH3uXKNP9rgCsA9Gfsu1ZK3x4I6EpJSUn/KiyXSMgDT95ACAiB/AkA6B75i8P5/laO5OBZpVdjoXO68Rw4cIBeeeVVKl++Yggiez5Hu9wzjz9bsPSwUnojgJ6fXhEFnk9PvA/8uIxTiMpMO/+xL0cIAdcTAIBbnJQ86tChI23fviMnLfPsc5yOdODAD6lKlaqFLtJZxPo0gD4GoDk6ZCuAngoA/Q0Du2itG3NukOTk5H/E0tZz1xuNNFAIRIuAYZjXKaV3Zhp8QX83atSElixZ4lkxzq1j7O74+utvqEGDhsS5sQvKK9rHZSw87gbQPxsGTlAK+wJAZ97ZeMUVV/wTAP5Sp04d8WdHy9Dkc4SAEwKImAyAv9gVkJSUMsQFN+PxwdvBt23bRj16PEIc0WKXXWEcrxRaM21EfVApXMOuEcOAXlzZOykpqRxntEtLS5Mae06MSM4RApEiYBjG5QB6nBPR6NfvLSteOB5FmvvMs+mxY8fRHXe0iAmRzvka4zGuDgKA3wLo95XSD/r9/irFihW7JFJjTt5XCAiBghMoohT2AUDbeRjuvbdTXC0U5nQj4iT/O3fupNGjv6AmTZpGOhzvOLsuchbasCxAngbgDTR6BwCuMAz40jCgGwBcGwgEEmMlO1/Bh74cKQRigIBh4D2I5gG7hl+9eg3autXbOwpzEuXcntu8eTMNGjSY7r67FQWDJWJ4Vp1d7K3t6XMNAz4AgPZKuTvxUwyYnDRRCBScAJfuAdAcAWBLVMqUSaUvvhiTm17F5fM8o+ab1ujRo+nWW28j9tVzWKJdtm49Xik8lOHD/tEw4FmlVEVedMwI64upSjIFtxA5UggUMgEAnG9XFFh4OnXq7PnMdqHcaX74YTY9++xz1KzZHZZY22UcA8efVgpXKYVva62b8aKzxGAXsjHLx3uPACK+4UQMateuS0uXLg1Fwzx/7okTJ2jdunU0ceJX9J//vGila+UNL95yg2iubL5XKVwAAO9zOTVEVBmLjTKz9p5kSI+iScAwjBudpJvkbd8jR37ueZENRwc5PI/FeseOHTRjxkx6/PEnrPqHvPHFNIt7yQ3CIX2HAHCZUvgfv99fWyl1jcyso2nR8lmeIhAIJCcqpWc5mUU3bNjYKhUVDhGLp/dgf/W+ffvo559/tsL1XnzxJSsShGOr+cbn5o0w9sYJcvmvH3izjN/vvzajskwRTxmQdEYIRJIAG43W+nml9El7xqetr+qzZs2KJ20Ne19PnTpFnO9j48aNtHDhQho+/DN67rnnqFWr1tSoUWOqXLlKzLtEMhYYVwPA0LOx162UUpiSkuL2eo2RNDt5byFQcAKGoW9ysu2bBZ0LyXq9ykrYVbkAb8ibYVatWmVtLx8w4D169NHHqHHjm6hs2VRCtBd1Y/fGG8nj0xM+wRREfMZNlWUKbi1ypBCIMgHOOQygZzsxzLS0SvTtt5PE1VEA0XV6CLtEjhw5QlyOa9OmTTR9+nTi3Zxt27ajmjVrUVpaZau4QIyF9Z0AwDW8SI2IVS6//PJLozzs5eOEQMwQ4F2FjznJbseifs89bWjv3r1O9UfOc0iAhZtFe8GCBTR8+HArFWybNu2II2zYl+3khlsI55xJz8YHnxkGNnVzBfSYsWZpqPcI+P1mMD11pf2vzxw2Nm7ceDpzxqHSyGlhIXD8+HErmdPy5StoxowZNHDgQCtevUaNWlYsNpfwcvECJAv1NgA9FACq+nw+TuAkYXrekxrpkRMCnIYy3Tj0GSezqDp16tGqVX+ERWjkTcJLgEP81q5da8Vjv/ZaH+rc+X5rAbJcuQqunGXzgjUivg0AtZ2MZTlHCHiRQIJSZiMAvc6JQPMs+rnnnqcDBw6GV13k3cJKgGOy2R21fPlymjZtOg0b9rEVl80hk+zLdssW9fSoIlzJ28oBoKSkRPWi5EifbBFIn0WbIwCczaJLly5L48dPJA4dk0dsEGA/9rFjx2j//v30008/0QcfDKQOHe6lhg0bUfnyFdyQT+QYAK5USjXz+0skidvDlknLwV4jgIi8s3Cvk1k0n1OnTl1auHCRRHXEhj7n2EoW7S1bttDs2XNo8OAh9MADD1KVKtdaC4+FGClyFAAncam2jBhq8U97TXykP/kTKFGixJWh+KLZ1cF1C//4Y3WOxi9Pxg4Bdofw7JrzXq9YsYJGjBhhxWNz/uvU1HJRn11nbKbaAADvcerT/EezHCEEvEcgATFYH0BvcTqL5hCvxx7rSUeOHI24cti1AAAgAElEQVQdNZKWFogAi/bq1autQgU9e/aiatWuK6TIEJzPZbsyoj28Z4XSIyGQGwGuBs1lkJwKNJ9XokRJGjp0qKQkLZDsxd5BLNRc7XzNmjU0duxY6tTpPuJwPr7uoYwbG+dyWN4ORBxw1VVXFRPfdG7WLM97kgAAXJ1eAsl+XHSmkXFUAEcJnDp1OvYUSFpsmwC7Qd5//wNrkbFkyVLREmoyDJgHAA2lWrknpUg6lRsBROwJoI9mCq6T3xUqVKSvvvqfRHbYlrvYPIEjeHh349SpU6lXryeIY60jnf9aKTyjlN4YCATaJyYm/i238SzPCwFPEQgGg0UBcKSTTHdZxbxixUpW7mje6SaP+CHAbhDeIPPmm2/SzTffEvHc14jmSaXwE86W5ylDlM4IgdwIGIaRphSuziq4Tv7mMK3PPx8lM+n40edzPeWwvdWr11iFda+//sZIC/UxpXAa10wUv3RuVi3Pe4YAESUAQGcAvduJMGc9hxPSv/zyq1ZlEZ5dySO+CLD7g/Ne9+//Nt10U1MqXjySFdDxF/ZL+3y+izxjjNIRIZATAb/f/1dE7Augj2cVXCd/8yp/t249rDhpnlnJIz4JsOuDhZqLErCPOjIbYDj5ErTlHbI5jWt5Tgh4hgAXAkU0P3e6DTyrmHOcdIsWLYkrX8u28PgUaO41r0lwfuuBAz+kevVuiIRIW6lMDcO4T0TaM1IkHcmFQILWugSAXpRVbEP5m10eQ4YMpd27d8evSknPrZv0smXL6Y033qTKla+NQHge7lcKH5UIj1wsW572DIGLDEPfoBQuCEWYs55bpkyqleuBd6eJXzp+1Zqv/dGjR60Me5ysibPqZR0nof6tFO4B0M/LTNozWiQdyY0AizRA6JEdWY2OV/e//HK87DyMX40+13Mu78XFc3lMZB0jof6tFHJM/5NFixb9e25jW54XAjFPgLOJaa07AGDIkR1ZjY43NfTs+TgtW7aMTp48ec5g5Y/4I8BrE5yzmusuhrl81z7DgPuktFbMy5B0IB8CFymF9yqlD2YV2XD8Xb16DXr//YG0ffv2+FMm6fF5BDjfx6BBg6latephm02frb95CAB6SAhePhYuL8c8gYsBoDuAuTkcwpz1Pdg3fc89rWnUqNFWykvxT5+nW3H1D7s8Jk+eTE2b3hLGSA/cAgB3ymaWmNcg6UBeBPirIiI2BdDLsgpsOP7m2NhSpUrTE088SfPnL6ADBw7ElTBJZ88nsHnzZurWrTtx8dtwjC+lYKlSql5e41teEwKeIKC1bgygl4QjTjon46tSpSr17v08LVjwk7WQKDPq88UrXv7jREx9+75JnN8lp3Fi9zmlYElSUpJfZtKekCHpRG4EONVjIKArIZrjAfQpu4ZSkON5x9m111azitNy3KwsJMaLLJ/fTw7HGzJkSNhC8ZTSnxmGcXluY1ueFwKeIYCIxRDN/uHI3ZGXaHOu6e7de1i+yUOHDp1vwfKf5wlwlMfEiV9RvXrXh2MmzeF3z0tkh2dkSDqSB4GEYDD4T6X0IwD6cF4iG+prWgepUqUq1Lp1W/rhhx+sjQ6S38Pz2nyugydOnKAZM2ZSWlro7g6lcJtSqloe41peEgLeIqCUqquU/h5Anw5VjPM7n2NleWPDW2+9TT/99JNVjumcJcsfniXAaxHz58+n+vUbhhrhwXk7ZhqGob1lhdIbIZA7gYt4wCulR0fKL51duE2zONWqVYe6dOlKY8eOo3379ktCJs/Kc3rH2N3BFVw453j28WDz/6NK4Uvi6sjdoOUVDxJIS0v7EyLeA2AutWkwoRocVaiQRo888ihNmvSdlTlNFha9qdY8k547d27IG1p445VhGNdJVIcHhUi6lDcBrXUlABwGoI9EW6hLly5Lt93WjHr1epxGjRplFQ1gsZZwPe8INqcvHTFiZKgheOyO+1opdU3eo1leFQIeJMCJaniLOICeH+lFxJxuArywyJtfatSoRV26dKNx476kX3/9zRJsXnSSR2wTOHHiJA0ePDTEzSzIro6H+ZufB01QuiQE8iVQJBgMmojm6wD6QE5CGs3nOAdx27btqU+fvvTdd5OtskxSSCB2hfrgwUPUo8ejIdY+xGV+v794viNZDhACXiWQmpp6iVJmXQBzbGHMprPfBHiBkTPqcbImrvjy1lv9aerUabRlyxbau3ev7GCMEc1mtxXXPmzW7HbHaxhK4Wml8HXxRXtVfaRfBSZQrFixSwD0/YhWSF7IdQ+zC28o/3M+EN5W3KZNW3rhhRfpv/8dQbNnz5EFxxgQ659//tlaJA7h+q9LTMTkAg9kOVAIeJhAEQC4GiD4AKK5PFpheXaNl4veskvkxhsbWLmKuUzT999Pod2791gbZWTh0T3KzW6qd98dEEo+6eMcdufz+S72sN1J14SAPQJ+f+krEIMdEYMzCiPiw65o8/HpG2VusBYeP/hgIE2ZMoWWL19huUbcI1nx1xJ2TXXq1Jl4cdjJdVUKVwcCgcr2RrAcLQS8T4Bn1IBodgLQsxHNE5HKlOfEcPM7h90iDRo0orvuakVPPfUMjRz5Oa1atcra4cizbNmSHr2bxdy586hatWqOBJp3wWb4or1vcdJDIeCEAIc7GYZxg1J6IoDeGktCnV3IeeNM8+YtLH/2hAkTaeHCRbR58xapxRhBveabYd++fYmzIWa/HgX5n2sZJiYmBpyMXTlHCMQNgWAwWBQRbwTQ7wPotUphRNKaFsRow3EMC0bNmrXpzjtbUo8ej9CAAe/RrFk/nIvJZh+qbKQJj3IvWbLE2qjk9LoZhtFVIjriRmqko6EQ8Pv9f2X3h1L4FADOifVZNYsGR4uwYJctm0qcSrVdu/bUt+8bNGvWLFqzZo21CCluEedizTe7zz77bwg5pHFGYmKiEcq4lXOFQNwRyEht2gRRv6uUXhWNzHlOZ2FOzuPY7Lp1r6eOHTtR//7v0JQpU60ZtnOpit8zd+7caUXf8M3Q7rU4u7NwFyLeHHcGJh0WAuEgwEJtmmYQMdgaQI9TSm8E0JyI3bYxuvUcjhTh2TWH+D344EP0+eejaPXq1XTw4EFxhRTgvsOz6KFDPyIOlXRwjXmx8A3JdBcOa5X3iHsCgUDA5FA9pfSniHolgOYoECeG6epzeOdjx46d6cMPB9MvvyyUPNj5CPX69eupceObHF1TpXCtLBbGvbQIgHASSE5O/gciJgOYt7JYA5ibMmbWES8iEM0bArtCeIt6q1atafjwz2jLlq1SszEHseaMd88//4LTuOijSunbwzk+5b2EgBDIQiAlJeXvnP8DUb8BYE4DMP+I9WiQnG4EZcqUtfJgT5s2nbZv3y4ukCxizVvAuUp8Ttzyee60UnqMz+crkmVIyZ9CQAhEgoDW+lLDCKbw4g9v6QUwp3LSpoxNMTEdwpcpNGXKpNItt9xmbXlev36DVJchstxAHTp0dCLQfM7Sq666qlgkxqO8pxAQArkQ4MUfwzAuz/Bd34xoPqOUHquUng2g1wHoY5miF4u/S5ZMsaJBevd+nubM+dHKG5JlUhl3f3I5NIfXcT9i8RtzGUbytBAoOIE6depczLvw5KdgDJhXVrqcZU8phRmbYzjb3gAAnI5ormfBVkqfjLVdjRxixmF7HGO9bdu2uN1yvmHDBisixoFIn0Y0H5MESlktRf52QqCIUuo2pXCy/BSMAQDcmddusZSUlD/zouNVV2GxQIDLd+luAOYoAP0TgLkawNwVK4LNyYNuuKE+ffLJp5aPOt6m0Bya2L37I45m0UrBWEQUN4cTVZJzzhG4SCl8VCk8Iz8FY4CI//b5fBedI5j3Hwm9e/cuwrPupKSS/wIoXh4Rm7NrBMD8HEBzylTXx2Fz+a8HH3zYKvvFccLx8uAt9F988QWx68fBLHqNYRgpeQ8PeVUI5E3AEmgHg8/JgPXEOYah3wq9Dh0LdtK/eNOMUsGKWuv2APojRJNrMHKip71ui8nOTJU6bNgndOzYsXjRaFq0aBHVrl3X9thVCo8rpRvn9W0rb9OUV4WAzycCbXNjilI4iN0YERo8RVi0AeBWAP08gDkSwOQ8Itvcsj2dc4H06fM67d69Oy5Eev/+/VY6WAeTmNOGoZ8QgY6QpcTJ24pA2xfoT6K0lTehWLHUSzjhEwBU1Vq34lwiAOaSwhbrlJQy9PjjT9C+ffviQqRfeull2zNoXmdQCj+x4Q6LE8mRbtohIAJtU6ABcAIA/MUO5DAfm8CLT0qZtyllvgOgOS57XUZcthMhcXQOLyDec0/ruBDpmTNnOmKEqH8o5LES5qEnbxdtAiLQNgVaKZyWmJj4t2hfqFw+L6Fs2bKXK6WqAUBbpZAFm+OxuahuxDfRcEKh117rQ+wG8PJjx44dVqpXB26O5aZplsnl2snTQiBfAiLQNgUaAOe5SKDPXWCOFuF2KVXqGqVUXUTzJaX0ZAC9JZKza47w+PDDQXTixAnPajRHc3BcuH2BNjcrpZqcu0jyhxCwSUAE2qZAGwZuuPLKK/9hk3OhHM6z60AA6yOaTwOY0zNm1mfsC03eGf5q1KhJ338/1dO5PDh1q11uSumDACZXWZGHEHBEoAiA7mF34MXz8UrhEb/ff4Uj2oV0UnocdtK/AIK1lcLhGfHXYduWzjsPW7RoSbt27fLsLPrNN9+yLdDsZlIK+0gkRyENfA98bBGldId4FlwHfT8DACVj9NoncAw3b5gBMHshmpwD24nwXHAOi/QHHwz0rECPHz/BYfpR/DhKUT8xOiSl2XkRKGIYxj3hMtJ4eR/DMO7IC2osvNaoUaP/U0qVOpsv5AkA/UeG++MC4bVzTevVu4HWrVvvSZGePXs2paaWs81HKf01AFwWC2NC2ug+ApyL43Y7RijH8owTXnbfpXTeIg60RjT7IuotoVxf3hI9ePAQT/qif/ttMdWsWcu2QHPBYsnJ4XxsxvuZHFNbPxSjjNNzJ3ht4GRUlblDKWs27UCI0l0lnTrd50lfNNd1bNSoiW0uSuFi0zQDXhsv0p8oEQCAOk5EtkOHe2n58uUx/TNmzBhKTi5l2+gA8PdrrrlGRekSRfVjDMPQ6ZkNrTSpttlUrFjJqnvoNT/H1q1bqXnzO23zAMD1zDSqF1E+zDsEELGck/SXDz30cMzHvq5a9QdVrnytA6PT2w1D3+SdUXB+TwKBQCWl8Ecn44Jv9h9//KnX9JkOHDhAPCmxO5lRCvfE8KLy+QND/os+AU6JmB6vaW81v1OnznTo0KGYNkTeIcbblR0YHedZeMnL23h5KzlvcrHLho/v1q17TI+LnBp/5MgRuu+++x2MFX3QMIKlo2/Z8omeIKC1LgGgt9s1RI575UKjsfxgo+Otynb7zscj6gWI6Ek3Bw/sokWL/h0ABzopllunTr1YHhY5tp3zYHfp0s3RWFEqWMETYiGdiD4BFhn2qdoVKS4yyiWBYvlx+vRp+uqr/1FyckknhnfUMMy20b9i0ftEAKiNaB6wOzbKlasQ89+uchrXnMGPk0TZ5WEYRo3oXTX5JE8RUEpdoxSXY7Ln4uBSSLxIGOuPlStX0nXX1bBtdBm8Znt5E0KJEiWuVEpvtDs2SpcuS+vXey8e+vnnXyDTLG57rHCklOwm9JRsRq8zvG05I6mOrYFXpcq1tGDBgljXZ6tydevWbRxmK8PDnEXOq8aXkpLy94zFQltjg/NFL136e8yPjewdEIGOni7JJ2UQSE1NvQTRqo9nywg51eS0adOyj+GY/H/QoMHEWdnszhTTj8fpXl2lTxdomG2XCws0R8h47SECLbJZGAQu5sUgu0bIx3NBTS88Nm/eTFWrVnMk0Erpk0phX05IVBgXL5KfGQwG/wmgbefrYIH+4w8R6EybEhdHJEdpHLw3gO7tpEjpyy+/4gV9puPHj9OLL77oSKDTjRAPK6Vv9/l8nhLp9EIA+lCm0BT0d9my5ejgwYOeGBtZO9Gr1+MOXWFQ26tusDiQx8LvomFAZwC9p6AGmHlc167eiHflhOzff/89sbBk9s3mb86xvJQT5XvIEBOUwqf5G4JNFlS7dp2suuaZv7t16+FwfBQvX/hWLi2IWQJKqUZOVuubNr3FM8bHVarbtGnrcIZkRcCcAcD5vAvPCyKdER8/36448/Ht23fwzLjI7MjJkyfpwQcfdiLQpxGTU2NWHKThhU9AqeKcdnKZXWPkhbVjx45njuGY/z1p0ncOc3OcC1E8DYCLOL+Jz+crUvhX1lkLihUrdgkivu7E7cVjyIt5obnuYtu27Z0I9H7DCKY4uxJylhDw+Xxa60sB9Fy7As3HL126NOaFObMDhw8fpu7de4QyiyYAPKUU/Mw+6VgpjZXVCDihv1LYEQB3ORkP5cqVp/nz52ci9cxv/oZ1112tbAu0UrjV79fFszKWv4WALQLNmze/CNEc5SQ5zujR3ojkyFSSefPmUfXq19k2xGxidkYpvfNsro5XtdaGrYtRuAf/yTCs6uCbs/WnwDxatryLtmzZkonTM7/Xr99A7NKzy0UpXC3Z7Ap3UHvh0y/SWr/mRKB5+ysvsnnlcfToURo48MNQXR2WIafnscCFZ3OdPHD11VcXdbFvOgEArgaA3k4SZ2WKVjBYggYMeM9T4yFzXC9btpy4YkxmXwv+G+fxbl0viIT0ofAIJJim2dZJYpwWLe4k9s956bF3717q0KGjA2M854vOei5HeBwAgO8AoL1hFOfcwAmFd6nP/+TLL7/8UkRsoRTOcupzzhSra6+t5sn4Zx7bP/30E1WqVCXrdS3Q34h6csmSJf91PnX5TwjYJGAY5nUA+nCmsRX0N2cuW7JkiZf02erLr7/+RmlplQtkhAVkxVEe+5TCH5RST3GZqcIUal4IVErfDYCfA+htBexDnjwee6xnzOcIz20gT58+g7iklwNOY2JxLcKmfMjhkSagtS4OgL/ZHYBlyqTSxIkTPfe1ljPdTZz4FVWsmObEKAt6zlSl8LFAAGv5/Wbwiiuu+GeERLsIvzdvSedCA0phn4wdgjy7L2hb8zyubt16tHLlqtz0LeafHzFiZJ79z42jUvhu7969YzaiJ9K6I+9fQAJFi7IP0ppN2R6Ir77ah44dOxbzRpi9A5wv+vXX+xL7VnMzwHA8rxRHTOA8RP2FYeiXAaAzb3rhYgpJSUm2vx7zjC0QCJiIWIuTObEgK4VfAOhfATjBkw6bMHP/ixdPpr593yCOFfbqg/NwOLjWx3iXbgFNUA4TAnkSuAhAP+nEeNkPvWvXLk/aJodXPfnk05YIOTBQ20adsQ7AIroHALdlbCBaAaBZwCcC4HgAGKoUDMn8AcCR/JpS+gcAzd+C1iuFWwDMXYj6gJPdgHb62rFjZ9q2bZsnr39mp9q0aWf7WnKoolKqQ55WJy8KgYIS4K+/6Qta9r72sm+Oqx579cEi3aVL14jPpO2IoluObdiwMc2cOcurl97qF0cpOVkgBMDV/C2moPYnxwmBPAkgYjKAXufE+D/91HuFQrOqzsaNG6l790ecLhQ5mH3Zu0k6uWahnINoWv75ceO+9LRrg8cAx3U7ZPWrl8ui5Skm8mJECPwJUX/vxM3Rrl0H4rptXn7wTPrddweEklTJqaG77rwKFdJowIABnlx7yD6Gx44d54g/F8LwYhraiCiPvGnBCLAf2onPkmNgvRhul91YeSPLZ599RjVr1g5xS7i7Z8i5zRh55ly5chVLnA8cOJAdj+f+52ieJ5540olAn0HUA2I5J0vBFEOOiioBgGBVJ/HQXGGFk+TwgPb6g78p8M3o/vsfjDu/dN2619NXX31l5dD2+nXm/m3btp1uvfU2BwLNOVn0gxEKm4yqJsiHuYgAFwpF1I7STHbocC/xLrx4eezZs4feeeddqlixkgMDjq0ZNFez5miduXPnxcvltfo5b958qlbNfm4WpfCwLBC6SNi80pSMbGYvOPFDczTH7NmzPbdpJT9F4hAzjvJIS6vkObcHuzRYoPr3f5sOHTqUHwpPvc7flIYMGUKmGbR9A1ZKL0hMxGSv6IL0wz0EEpRSzdKzsdmb5fEs68knn/L8qn5OKsQlnr77bjLdd98DxO6e3Hy4sfR8yZKlqFu37tZN18ubUHK6nvwc+9id5mRRSg/x+0tf4R6zlpZ4hgBn3wLQM5yICS8Wen3TQm4Gzc/zLHPq1KmWYVepUjXmfNQ8Y65QoSLdd9/9NGfOHCsRlpeyFeZ17bK/xoVvHbqvTgCY90kEh2ck0X0dQTRfciLQPHv85JNPPR9yl92Ys//PW985cf0rr7xKt9/enLj6DIsf/zjhGslzuE387ee662rSY4/1om+/nUQcrRLvjw8//NDhtcKt4n92n6Z5qkWIWMVJuB0b+1133U0rV66Md/u2+n/ixAnasGGDtdvu1Vdfo0aNGlNqankr33RhijV/dkpKGSpfviK1atWahg37mFasWEFcVSZeZ8xZB+z+/Qfo1lubORJoRL1YUox6Sg7d1xkiSgDQU53M3Di50IcfDhJDz2LxLHq86MQJmDhE77//HUHPPdeb2rZtRxy6Vrp0WUdiUNDrkynI9es3pI4dO9FLL71M48ePp/Xr11ubTeIhPDLL5cj3z8mTv3eUbhbRPKmUfkPC69ynaZ5rEfvRADRn5LItHrfddjvt3OnNBEr5WncBD+DZ9ebNm2nhwoU0deo0+vTT4dSnz+vUs2cvuvvuVlb8LZffYl82R4iwP5RnvOXKVTjvh5/j1ypVqmwdy1EXjRo1oZYt76Zu3XrQyy+/Yr33lClTiPNcb9++PS4Xcgt4WaxQ0UceeZRMs7jtcQ+gD2ld4nrPiYF0yH0E0lNW6nlOBLp06TI0aNBgmUUXVBWIrE0+PMvmiAkW7+PHj1szbhbUZcuW0eLFi63KHjNmzKQZM2ac+5k1a5b12qpVqyzxZTcF+8CPHz9hvRe/p7gtCn4hFi361brRORn3XJnGSYpY91m/tMj1BDgmOmOx8ITdwcpfqXkHlhcLiBbc1OXIWCPANzNeK3C6PqAUvpiSkvJn1xu3NNAbBJKTkxOdZrhjUX/99TdizUalvXFMgL+psAvJ7oSEj0fUK5OSoKo3LF96ETMEAPQQJwOWz2H/6Lp16+PY5KXrsUKA3UpcGYZDDp2Md6VgTHJy8j9ixrClod4gAAC1Ec0dTgYtn/Poo48Rhy3JQwi4mcAPP8yxYsGdjnOlVD1vWLz0IqYIpKamXoKoBzvJz8GDneN+R4/+QiIH3KxOcd42nj0/8MCDjmbOPMaVwrUpKSl/jynDlsZ6hkCCYejrM+rjORrEderUo2XLlse5DEj33UiAI1wmTZpkueOczJ4zNnR194y1S0dij0BGlrs+TmfRvCreufN9tGPHDjfaqLQpjgls2bKVmjS5ydHEI13QcY6Utoo9TfNaixP8fjMIgJudzDL4HM7T8d57H1jxuXGsB9J1FxHgsLrXXuvjdFMKi/qxs7mfezZv3vwirxm89CfGCHB8p1L4lJOKK5miXqZMKo0YMVI2TrhIpOK1KadOnabJk6c4jtrIGNM/aa0vjTFTluZ6lYBpmgEAPdupq4MHdc2ateiXX36JV12QfruEwPLly6lBg0YhuDY4BQLc71Vbl37FKAHTNG8D0PszZ8VOfjdo0FBE2iVCFY/N2Lp1KzVvfqfjHYMA+rRSOJknLDFqxtJsrxLgcCKl9HtK4Skn4px5Difz2bFjZzzqg/S5EAlwruuXX341xJmz3gYAt/bu3buIV+1c+hXDBILBYGmuu5Yptk5+c2THo4/2pK1btxWiucpHxxMBrnjD4syx+U7GbMY5Z5TCT/1+/19j2ISl6V4nwDMIRNN2IqWshlG8eDI99FAXq7RSPAmF9DX6BDjn9eefjwpD7m38XcLqvK5uHugfR3Vord9yUnklu0g/9dTTtGfP3uhbrXxiXBDgFK7ffPOtVaE869hz8PcBpfQjHjBf6UI8EADrof8Xqj86ObkU9ez5uGxkiQu5jG4neafghAkTqFat2qG4Nfhcdm18wqkP4sG2pY/eIFCE6xcC6C0OZiPnGQy7O55++t/i7oiufnn+07h8VfXqNc4ba07GKqLeGQjoSt4wW+lFPBFIUEo1DiXjXabBcJmhu+5qRQsW/CSbWTwvnZHtIFekef/9D6hy5WtDFmcAcxeA2dLn80nURjwpm1f6yivaAPpJRH0wU2xD+X3TTU3pt98WR9aC5d09S4BD6QYOHGRVLg9lHGY599VgMPhPr9ir9CMOCbBvTil486xQH88ysB3NXjgEjwuhcu4ONjZ5CIGCEuBK5Y8//gSVLJniaOxlG7sc6z+Fk4XFoUlLl71GIBgMFgXQn4VDpNlQSpUqTa+88qrUNiyoOsXxcRxGxylt27RpGw5h5vc4A6BnKKVKec1OpT9xTCAQCCQCmKNCydeRdRYTDJagO+5oQYsWLbKqXcexBknXcyHAG1BGjx5DNWrUJB4vWceP078R9XIAuJaIEuLYnKXrHiSQEAgEygDouU6NI/t5XCeuXr0baNCgQbRnzx5ZQMxFqOLtaQ6hW716NT33XG9KS6scSm6N80SdK6QAwJ2ylduD6iRd8vnSE/yrauEUaRZtTlf60EMP07x584m/0sojfgkcO3aMpk2bRg0bNiYO0cx+Uw/h/3UA0JI3YoktCwEvE+Dwu4pK6aUhGMsFhscLiFxCa8CA92jTps3xq1Bx3HNeCOzd+3kqV65C2GbNGWOUiyO3lwT8XpYl6dt5BEzTrIeol4VTpPm92Nd4550taezYccSVMeThfQK8ZZvzaTRrdnsoVVAuuOlnjM3tANAtGAz+33kDWP4RAh4nwLsNFYCehGieDKdQ82yat4mzUE+ZMpX27dvnfZWKwx7yusOkSd9R69ZtLHcGX/dwjiMAvV0p7FinTp2LPW6L0j0hkDOBDJEeF2pypdwMk1NI9ujxCM2YMSb6iaoAAAyISURBVIN4piWP2CfA34x4w9ITTzxFFSumhVuUM99vu2EYnWTmnLPdyrNxRCCjZNZ7AHpPbkIbyvMc7VGhQpqVwvTbbydZyZd4pV8esUOAF3+3b99O06ZNpy5dulqhc5wCIJRxkcu5p5XSqzhtriwIxpEISVfzJsAzlbPVkJ9QSu/MxXDCYoy8k6xNm3b0xRdjaN26dRKaFwMavW/ffho/fgJ17Ng5nNu0cxpPpwHwR0Ssn/dolVeFQBwSYF+fUsEKAHoRgA6pdFZ+Is8hWBwj+8wz/6a5c+daszNxgbhHrQ8fPkwrVqy0dozWqlUn0sLMYn0MAEdyplyJc45D8ZEuF5hAQiCgKytlfhJpkWYR56gPdn+0bHmXFaK3ePFiOnLkiHuUKo5awm6nzZs3WxEZPXv2opo1a1uLvRFY/Ms+e96mFP5HKXWNz+eTHYIFNlU5MG4JlChR4kpE80VEc3t+s+FwvV6iREni2Vrbtu3ov/8dQX/88QcdOHBAwvUidJNgQeaNJXv37qO5c+dZs+WGDRtZG4/CdU3zep+Mhek/OGWo1BKMW6mRjjslwEZjmmYjRP1DuBIt5WWwma/xjI0XoMqXr2iJ9UcffURz5vxImzZtkp2KYRDrEydOWDc/XrB98cWXqHHjJlaYHC/mZl6DKPzm7IofIWI5mTU7tVA5Twj4fD7TNIMAuh+iPhAFw71AJFg42F/drNkd9O9/P0vjxo2jLVu2hkGq4ucteLa8cuUqGjJkCD3yyKPUpMlNVLZsuQtYR+n6cnzzM1rrS8XAhIAQCAMBjvIIBLB+xmz6WJQM+QIBYbFmVwjn/2CRYcGeMOErKy533br1lkskfmT3wp5yjDJvDOJkRQsXLrL8yZyH+frrb7QW+nhxNgo+5QuuW8Z44Rv8VJ41y+aTMBilvIUQyEaAM+KZWgd7AOh9hSXSOX1u5cpVqGnTW6xY67fe6k+jRo2yUqGyWHk95nr//v00b948GjNmDPXp87rFoEmTppaLqBDF+DyRVgrXAOgeV199ddFsY0r+FQJCIJwEOGkN5+RVSg9G1JzI5jxjLOz/eZbNRQUqVapiLTqya4Q3V/Tr19+K550/f4H1dX/Dhg1WeB+LOIeVuSkTH8+EuWoNt23Hjh20ceNGWrlyJf3yy0KaMGEi9evXjx599DFq2vRmql27ruUCYpdFlP3I+V13Tq6/HsAcaBjB0rLxJJxWKO8lBPIhkJaW9jfOzwtgfpsex+ouoc7tRsGzSt6ifMMNN1LLlnfTww93tSqXv/XW2/TRR8NozJix9M0339LMmTOtQrm//77M2lTDi5Q7d+6kgwcPOoos4ThvjkrhGe+2bdto7dq1VrWRn3/+mWbOnEW8aMdJh4YNG0b9+r1Fzz//Aj38cBe6557W1KBBQ8tnHKHde/kJrZPXjwCY4xHxRnFn5GNI8rIQiBQBnk3zVnGtdQcWakRrJyLPnJwYdaGfw0meOH8Iz76vu66mlUK1QYNGlvvklltuo9tvb27FbHOCIA4H5J927dpTly7dqGvX7uf9cI7s9u07nDuOz+EEUi1a3Em33XY7sRuC35vTtFavfp31mSkpZSKVeChabHdzSSqt9V1+f4mkSI07eV8hIATsEUjg2Gml8F4AczqiuT9WRdpJu3lWntOPk/eK0XMO8zZt0yzejmtgym5Ae8YjRwuBaBEokpSU9C8AaAighwKYmwH06RgVnWjNOmP1c06cXfjbzzdkw9A38Q06WoNMPkcICIHQCBThOFetdSVE/a5SekE0N7vIDSGiLiZ2Ya1FNAexj5lvyFLtJDRjkbOFQKER4FqIwWDQNAzskrGgyLvIYnXWGO/tXgEQ7KGUWV22ZxeaSckHC4GIELgoNTX1Eq11Wa3N1xD1zIxFRXGBuPeGdRRALwcwR3Ia0Izdf0UiMjrkTYWAEHAPgfRFRfM2pfB1APOXSFV1kdm6/W8rSuFuAPwSALryzj+JYXaP3UhLhEBUCbDx+/3+JESsqZT5DoD+FdHkwgHiConezPoIgN6BqL8HgM4AUN4wjMvFtxxVU5APEwLuJwAAf+HFxbPbybsj6k+Vwt8B9GGZCdufCefB7EzGLHkOovk2gNnWMIwU948OaaEQEAJuIVDE7/dfoZSqcDYKpAmA2QtAj0XUiwFwC6J5UEL4CiTa7OM/BKC3pFfLCX6GaHZRyqyntS4uhVndMtylHUIgdgkk8JZhnl1z5Q2ldGMA/SyiHo5oTgfQKwGsdKgxu4sxj9muk8gR3ii0AlHPQjQ/RsTHlFJ1OVkRM8zYfi3VS2LXHqTlQiAWCNS5+Oqrgyw6JRFLVFEq2EopfAFAjwEwlwDo3Yi8mcJykfDGCi8IOFe+PgmgjyCanMJzD6Jeiai/AtCvGgY2B4CqhmFo9iP7fD6JuoiFoSxtFAJeJ8Ax15zEicPBeMtxMBhMMU3rq3yHjBJegxDN8QA4jSNHAMw/APRWF/q4+UZyNKPK+h8A+KtSelZ6ZIUeAqBfBjA7Z4S+leW+AsBlHJucsbAns2OvD3bpnxDwIoHExMS/BQLJiYYRTFFKVQMINkAMtkA0O50Vxcd5FqoUfghgjkrfWGPOyZiNr1AKt6Yvrmmejdt1PRxjwc0Q3Q0AeikXQEDU3yEGvwAIDkU0+57NDPgEgL4/EIA72ZVjmmZ1jh2/5hpU3HYpEeXFUSl9EgJCID8CCTz7ZP8sh/6xr5ZnpLy5JiUl5e/8EwwG/8k/PFvN/OGFTK11CURMzv5jmqlXZR7HvzPPT05O/ge/HwsufwZ/Fi/W8WfLDDi/yySvCwEhIASEgBAQAkJACAgBISAEhIAQEAJCQAgIASEgBISAEBACQkAICAEhIASEgBAQAkJACAgBISAEhIAQEAJCQAgIASEgBISAEBACQkAICAEhIASEgBAQAkJACAgBISAEhIAQEAJCQAgIASEgBISAEBACQkAICAEhIASEgBAQAkJACAgBISAEhIAQEAJCQAgIASEgBISAEBACQkAICAEhIASEgBAQAkJACAgBISAEhIAQEAJCQAgIASEgBISAEBACQkAICAEhIASEgBAQAkJACAgBISAEhIAQEAJCQAgIASEgBISAEBACQkAICAEhIASEgBAQAkJACAgBISAEhIAQEAJCQAgIASEgBISAEBACQkAICAEhIASEgBAQAkJACAgBISAEhIAQEAJCQAgIASEgBISAEBACQkAICAEhIASEgBAQAkJACAgBISAEhIAQEAJCQAgIASEgBISAEBACQkAICAEhIASEgBAQAkJACAgBISAEhIAQEAJCQAgIASEgBISAEBACQkAICAEhIASEgBAQAkJACAgBISAEhIAQEAJCQAgIASEgBISAEBACQkAICAEhIASEgBAQAkJACAgBISAEhIAQEAJCQAgIASEgBISAEBACQkAICAEhIASEgBAQAkJACAgBISAEhIAQEAJCQAgIASEgBISAEBACQkAICAEhIASEgBAQAkJACAgBISAEhIAQEAJCQAgIASEgBISAEBACQkAICAEhIASEgBAQAkJACAgBISAEhIAQEAJCQAgIASEgBISAEBACQkAICAEhIASEgBAQAkJACAgBISAEhIAQEAJCQAgIASEgBISAEBACQkAICAEhIASEgBAQAkJACAgBISAEhIAQEAJCQAgIASEgBFxKgJZ1byc/wkDGQHTHgEvlQJrlNgK0qjvJjzCQMRDdMeA2HZD2uJSAGGZ0DVN4C28eAy6VA2mW2wiIYIhgyBiI/hhwmw5Ie1xKQIwz+sYpzIW5S+VAmuU2AiIWIhYyBqI/BtymA9IelxIQ44y+cQpzYe5SOZBmuY2AiIWIhYyB6I8Bt+mAtMelBMQ4o2+cwlyYu1QOpFluIyBiIWIhYyD6Y8BtOiDtcSkBMc7oG6cwF+YulQNpltsIiFiIWMgYiP4YcJsOSHtcSkCMM/rGKcyFuUvlQJrlNgIiFiIWMgaiPwbcpgPSHpcSEOOMvnEKc2HuUjmQZrmNgIiFiIWMgeiPAbfpgLTHpQTEOKNvnMJcmLtUDqRZbiMgYiFiIWMg+mPAbTog7XEpATHO6BunMBfmLpUDaZbbCIhYiFjIGIj+GHCbDkh7XEpAjDP6xinMhblL5UCa5TYCIhYiFjIGoj8G3KYD0h6XEhDjjL5xCnNh7lI5kGa5jYCIhYiFjIHojwG36YC0x6UExDijb5zCXJi7VA6kWW4jIGIhYiFjIPpjwG06IO1xKQExzugbpzAX5i6VA2mW2wiIWIhYyBiI/hhwmw4Udnv+H0gftadXegAjAAAAAElFTkSuQmCC;fontSize=16;" vertex="1" parent="1">
          <mxGeometry x="160" y="481" width="120" height="120" as="geometry" />
        </mxCell>
        <mxCell id="SvKQhbEGWFyG_5VxSVS0-13" style="edgeStyle=orthogonalEdgeStyle;rounded=0;orthogonalLoop=1;jettySize=auto;html=1;" edge="1" parent="1" source="SvKQhbEGWFyG_5VxSVS0-12" target="SvKQhbEGWFyG_5VxSVS0-9">
          <mxGeometry relative="1" as="geometry" />
        </mxCell>
        <mxCell id="SvKQhbEGWFyG_5VxSVS0-21" value="1" style="edgeLabel;html=1;align=center;verticalAlign=middle;resizable=0;points=[];fontSize=16;" vertex="1" connectable="0" parent="SvKQhbEGWFyG_5VxSVS0-13">
          <mxGeometry x="-0.4949" y="1" relative="1" as="geometry">
            <mxPoint x="1" as="offset" />
          </mxGeometry>
        </mxCell>
        <mxCell id="SvKQhbEGWFyG_5VxSVS0-12" value="Sender" style="shape=image;verticalLabelPosition=bottom;labelBackgroundColor=default;verticalAlign=top;aspect=fixed;imageAspect=0;image=https://cdn-icons-png.flaticon.com/512/10288/10288702.png;fontSize=16;" vertex="1" parent="1">
          <mxGeometry x="170" y="700" width="100" height="100" as="geometry" />
        </mxCell>
      </root>
    </mxGraphModel>
  </diagram>
</mxfile>
